# AST/ASF file generated using VICON BodyLanguage
# -----------------------------------------------
:version 1.10
:name VICON
:units
  mass 1.0
  length 0.45
  angle deg
:documentation
   .ast/.asf automatically generated from VICON data using
   VICON BodyBuilder and BodyLanguage model FoxedUp or BRILLIANT.MOD
:root
   order TX TY TZ RX RY RZ
   axis XYZ
   position 0 0 0  
   orientation 0 0 0 
:bonedata
  begin
     id 1 
     name lhipjoint
     direction 0.662698 -0.695252 0.27831 
     length 2.53073 
     axis 0 0 0  XYZ
  end
  begin
     id 2 
     name lfemur
     direction 0.34202 -0.939693 0  
     length 7.16147  
     axis 0 0 20  XYZ
    dof rx ry rz
    limits (-160.0 20.0)
           (-70.0 70.0)
           (-60.0 70.0)
  end
  begin
     id 3 
     name ltibia
     direction 0.34202 -0.939693 0   
     length 7.63967   
     axis 0 0 20   XYZ
    dof rx
    limits (-10.0 170.0)
  end
  begin
     id 4 
     name lfoot
     direction 0.0938457 -0.257721 0.961651   
     length 1.89793   
     axis -90 7.62852e-016 20   XYZ
    dof rx rz
    limits (-45.0 90.0)
           (-70.0 20.0)
  end
  begin
     id 5 
     name ltoes
     direction -0.00116841 -0.0030592 0.999995   
     length 0.955649   
     axis -90 7.62852e-016 20   XYZ
    dof rx
    limits (-90.0 20.0)
  end
  begin
     id 6 
     name rhipjoint
     direction -0.649445 -0.705948 0.282592   
     length 2.49238  
     axis 0 0 0  XYZ 
  end
  begin
     id 7 
     name rfemur
     direction -0.34202 -0.939693 0   
     length 6.90728   
     axis 0 0 -20   XYZ
    dof rx ry rz
    limits (-160.0 20.0)
           (-70.0 70.0)
           (-70.0 60.0)
  end
  begin
     id 8 
     name rtibia
     direction -0.34202 -0.939693 0   
     length 7.72868   
     axis 0 0 -20   XYZ
    dof rx
    limits (-10.0 170.0)
 end
 begin
     id 9 
     name rfoot
     direction -0.0920068 -0.252865 0.963117   
     length 1.97476  
     axis -90 -7.62852e-016 -20   XYZ
    dof rx rz
    limits (-45.0 90.0)
           (-20.0 70.0)
  end
  begin
     id 10 
     name rtoes
     direction 0.000391322 0.00230649 0.999997   
     length 0.992641   
     axis -90 -7.62852e-016 -20   XYZ
    dof rx
    limits (-90.0 20.0)
  end
  begin
     id 11 
     name lowerback
     direction -0.00875327 0.998321 -0.0572635   
     length 2.20024   
     axis 0 0 0   XYZ
    dof rx ry rz
    limits (-20.0 45.0)
           (-30.0 30.0)
           (-30.0 30.0)
  end
  begin
     id 12 
     name upperback
     direction 0.00753931 0.999972 -0.000360425   
     length 2.20538   
     axis 0 0 0   XYZ
    dof rx ry rz
    limits (-20.0 45.0)
           (-30.0 30.0)
           (-30.0 30.0)
  end
  begin
     id 13 
     name thorax
     direction 0.0117767 0.999601 0.0256663   
     length 2.21508   
     axis 0 0 0   XYZ
    dof rx ry rz
    limits (-20.0 45.0)
           (-30.0 30.0)
           (-30.0 30.0)
  end
  begin
     id 14 
     name lowerneck
     direction 0.060228 0.994909 0.0807986   
     length 1.7607   
     axis 0 0 0   XYZ
    dof rx ry rz
    limits (-20.0 45.0)
           (-30.0 30.0)
           (-30.0 30.0)
  end
  begin
     id 15 
     name upperneck
     direction -0.0563647 0.959594 -0.275685   
     length 1.75612   
     axis 0 0 0   XYZ
    dof rx ry rz
    limits (-20.0 45.0)
           (-30.0 30.0)
           (-30.0 30.0)
  end
  begin
     id 16
     name head
     direction -0.0161544 0.99458 -0.102714  
     length 1.79288  
     axis 0 0 0   XYZ
    dof rx ry rz
    limits (-20.0 45.0)
           (-30.0 30.0)
           (-30.0 30.0)
  end
  begin
     id 17 
     name lclavicle
     direction 0.93913 0.332189 -0.087669  
     length 3.52087  
     axis 0 0 0   XYZ
    dof ry rz
    limits (-20.0 10.0)
           (0.0 20.0)
  end
  begin
     id 18 
     name lhumerus
     direction 1 -4.48974e-011 -2.70836e-027   
     length 5.35289   
     axis -180 -30 -90   XYZ
    dof rx ry rz
    limits (-60.0 90.0)
           (-90.0 90.0)
           (-90.0 90.0)
  end
  begin
     id 19
     name lradius
     direction 1 -4.48961e-011 -9.76021e-027   
     length 3.27727   
     axis -180 -30 -90   XYZ
    dof rx
    limits (-10.0 170.0)
  end
  begin
     id 20
     name lwrist
     direction 1 -4.49103e-011 -2.23668e-026   
     length 1.63864   
     axis 1.44924e-014 90 90   XYZ
    dof ry
    limits (-180.0 0.0)
 end
  begin
     id 21 
     name lhand
     direction 1 3.0697e-005 0.000161777   
     length 0.54443   
     axis 2.85318e-014 90 90   XYZ
    dof rx rz
    limits (-90.0 90.0)
           (-45.0 45.0)
  end
  begin
     id 22 
     name lfingers
     direction 1 -4.49027e-011 -8.9447e-026   
     length 0.438912   
     axis 5.70628e-014 90 90   XYZ
    dof rx
    limits (0.0 90.0)
  end
  begin
     id 23
     name lthumb
     direction 0.707058 2.6516e-005 0.707156   
     length 0.630274   
     axis -90 45 -3.53137e-014   XYZ
    dof rx rz
    limits (-45.0 45.0)
           (-45.0 45.0)
  end
  begin
     id 24 
     name rclavicle
     direction -0.95274 0.284984 -0.105215   
     length 3.43401  
     axis 0 0 0   XYZ 
    dof ry rz
    limits (-10.0 20.0)
           (-20.0 0.0)
  end
  begin
     id 25 
     name rhumerus
     direction -0.999999 -0.000575019 -0.00106829  
     length 5.52077   
     axis -180 30 90   XYZ
    dof rx ry rz
    limits (-90.0 60.0)
           (-90.0 90.0)
           (-90.0 90.0)
  end
  begin
     id 26 
     name rradius
     direction -1 -4.4879e-011 -6.35415e-027   
     length 3.32364   
     axis -180 30 90   XYZ
    dof rx
    limits (-10.0 170.0)
  end
  begin
     id 27 
     name rwrist
     direction -1 -4.49048e-011 -9.98542e-027   
     length 1.66182   
     axis 6.32482e-015 -90 -90   XYZ
    dof ry
    limits (-180.0 0.0)
  end
  begin
     id 28
     name rhand
     direction -1 -4.48978e-011 -1.99771e-026   
     length 0.732235   
     axis 1.27479e-014 -90 -90   XYZ
    dof rx rz
    limits (-90.0 90.0)
           (-45.0 45.0)
  end
  begin
     id 29
     name rfingers
     direction -1 -4.49144e-011 -3.99245e-026   
     length 0.590347   
     axis 2.5496e-014 -90 -90   XYZ
    dof rx
    limits (0.0 90.0)
  end
  begin
     id 30
     name rthumb
     direction -0.707107 -6.35121e-011 0.707107   
     length 0.847624   
     axis -90 -45 -2.82974e-014   XYZ
    dof rx rz
    limits (-45.0 45.0)
           (-45.0 45.0)
  end
:hierarchy
  begin
    root lhipjoint rhipjoint lowerback
    lhipjoint lfemur
    lfemur ltibia
    ltibia lfoot
    lfoot ltoes
    rhipjoint rfemur
    rfemur rtibia
    rtibia rfoot
    rfoot rtoes
    lowerback upperback
    upperback thorax
    thorax lowerneck lclavicle rclavicle
    lowerneck upperneck
    upperneck head
    lclavicle lhumerus
    lhumerus lradius
    lradius lwrist
    lwrist lhand lthumb
    lhand lfingers
    rclavicle rhumerus
    rhumerus rradius
    rradius rwrist
    rwrist rhand rthumb
    rhand rfingers
  end

#!OML:ASF G:\Work\Work\Patient Classification 1\Elijah\terrain1\Elijah.ASF
:FULLY-SPECIFIED
:DEGREES
3708
root 15.526 20.4626 12.6738 719.173 -69.2268 2.00944
lowerback 9.57671 -0.743943 -6.43381
upperback 2.56648 -1.64146 0.736078
thorax -2.48851 -0.824732 4.57982
lowerneck -9.95559 14.0888 14.9408
upperneck 29.3515 20.5549 -12.7009
head 14.8575 9.03293 -4.01969
rclavicle -3.60297e-015 9.54166e-015
rhumerus -43.9655 1.28981 -83.8093
rradius 39.5805
rwrist -3.42406
rhand -14.3516 22.9917
rfingers 7.12502
rthumb 11.7901 -6.65643
lclavicle -3.60297e-015 9.54166e-015
lhumerus -29.0059 -6.78903 86.8098
lradius 64.7633
lwrist 11.1636
lhand -21.4141 22.3514
lfingers 7.12502
lthumb 4.97452 52.273
rfemur -64.7945 -10.1077 19.5238
rtibia 79.0777
rfoot -16.1412 1.51665
rtoes -14.4418
lfemur -1.28539 -6.77975 -23.3326
ltibia 22.8917
lfoot -10.4042 -0.0780049
ltoes 0.415642
3709
root 15.4546 20.4692 12.6889 718.904 -68.9968 2.50247
lowerback 9.45508 -0.754601 -6.46609
upperback 2.69204 -1.64933 0.709075
thorax -2.289 -0.83993 4.56469
lowerneck -10.0853 14.0237 14.6912
upperneck 29.3649 20.4383 -12.5263
head 14.8079 8.97164 -3.93036
rclavicle 4.87768e-014 -1.15295e-014
rhumerus -43.8284 1.81543 -84.2338
rradius 40.118
rwrist -4.67008
rhand -15.0609 22.1595
rfingers 7.12502
rthumb 11.106 -7.52663
lclavicle 4.87768e-014 -1.15295e-014
lhumerus -28.9122 -7.07915 86.9708
lradius 64.8924
lwrist 10.908
lhand -20.9837 22.5391
lfingers 7.12502
lthumb 5.39008 52.4506
rfemur -64.458 -9.3519 18.7845
rtibia 76.7254
rfoot -15.9908 1.14234
rtoes -14.6801
lfemur -1.05767 -6.84423 -23.4818
ltibia 22.5134
lfoot -10.0417 -0.141408
ltoes 0.56077
3710
root 15.3679 20.4795 12.7116 718.123 -69.0247 3.10258
lowerback 9.64581 -0.810964 -6.82652
upperback 2.90383 -1.76765 0.846787
thorax -2.14106 -0.912958 4.92754
lowerneck -9.90342 14.1416 14.5032
upperneck 29.241 20.6991 -12.6633
head 14.7545 9.0606 -3.90896
rclavicle -2.45499e-014 1.49089e-014
rhumerus -43.7597 2.81684 -84.2566
rradius 40.5181
rwrist -4.53872
rhand -15.0388 22.3021
rfingers 7.12502
rthumb 11.1273 -7.38286
lclavicle -2.45499e-014 1.49089e-014
lhumerus -29.0315 -6.66888 87.1417
lradius 65.0392
lwrist 10.5558
lhand -21.6099 22.945
lfingers 7.12502
lthumb 4.78545 52.8709
rfemur -63.5979 -8.70882 17.9768
rtibia 74.4556
rfoot -15.9055 1.33455
rtoes -15.2973
lfemur -0.304921 -7.01373 -23.8671
ltibia 22.1748
lfoot -9.87567 0.294228
ltoes 0.311877
3711
root 15.2882 20.4941 12.7168 718.265 -68.6916 3.02168
lowerback 9.82122 -0.962485 -7.0895
upperback 2.95188 -2.00029 1.08309
thorax -2.13668 -1.03204 5.35472
lowerneck -9.74219 14.2753 14.6636
upperneck 29.2088 20.9677 -12.9394
head 14.8218 9.16982 -3.99271
rclavicle -1.3418e-015 4.96962e-015
rhumerus -43.6526 3.27873 -84.1791
rradius 40.7876
rwrist -4.53139
rhand -15.1508 22.2141
rfingers 7.12502
rthumb 11.0193 -7.47668
lclavicle -1.3418e-015 4.96962e-015
lhumerus -29.2435 -6.3646 87.2904
lradius 65.1626
lwrist 10.31
lhand -20.4455 23.0127
lfingers 7.12502
lthumb 5.90968 52.9103
rfemur -62.968 -8.34019 17.6027
rtibia 72.2563
rfoot -15.9179 0.703805
rtoes -18.2342
lfemur -0.019962 -6.67527 -23.7227
ltibia 21.8974
lfoot -9.38525 -0.131682
ltoes 0.0381555
3712
root 15.2056 20.4972 12.7395 718.274 -68.2948 2.93873
lowerback 9.96448 -1.03888 -6.91873
upperback 3.11131 -2.09259 1.1728
thorax -2.03891 -1.08873 5.36377
lowerneck -9.67047 14.2663 14.6661
upperneck 29.0374 20.9608 -13.002
head 14.7363 9.17373 -4.01998
rclavicle -4.7348e-014 6.4605e-016
rhumerus -43.3564 2.91019 -83.8919
rradius 40.8413
rwrist -4.33406
rhand -14.2147 22.7401
rfingers 7.12502
rthumb 11.9221 -6.90046
lclavicle -4.7348e-014 6.4605e-016
lhumerus -29.3512 -6.5661 87.4832
lradius 65.2488
lwrist 10.1276
lhand -21.4268 22.7985
lfingers 7.12502
lthumb 4.96229 52.7204
rfemur -62.1847 -8.30167 17.4104
rtibia 70.2027
rfoot -15.7291 -0.380768
rtoes -22.9539
lfemur 0.490462 -6.79214 -23.7105
ltibia 21.6368
lfoot -9.06645 -0.250051
ltoes 0.9077
